<?xml version="1.0" encoding="utf-8"?>
<!-- Generator: Adobe Illustrator 23.0.1, SVG Export Plug-In . SVG Version: 6.00 Build 0)  -->
<svg version="1.1" id="Capa_1" xmlns="http://www.w3.org/2000/svg" xmlns:xlink="http://www.w3.org/1999/xlink" x="0px" y="0px"
	 viewBox="0 0 61.9 61.9" style="enable-background:new 0 0 61.9 61.9;" xml:space="preserve">
<style type="text/css">
	.st0{fill:#010002;}
</style>
<g>
	<g>
		<path class="st0" d="M50.1,0c-9.9,0.9-17.2,5.8-21.5,13c-2.9,3.6-8.6,14.5-10.6,20.3c-3.8,7.1-7.1,15.6-9.6,23.2
			c-1.6,4.7,5.5,7.7,7.1,3c1.9-5.7,4.2-11.9,6.9-17.6c2.6,5.8,5.3,11.6,8.1,17.4c2.2,4.4,8.8,0.5,6.6-3.9
			c-2.9-5.9-5.6-11.9-8.3-17.9c0-0.1,0.1-0.2,0.1-0.3c0.4,0.1,0.9,0.2,1.5,0.1c4.1-0.8,8.2-1.5,12.3-2.3c1.8-0.3,2.4-2.2,2.1-3.8
			c-0.8-4.6-3.4-7.8-6.7-10.8c-0.5-1.6-2.1-3.1-3.9-4.5c3.6-5.9,9.6-9.1,17.3-9.7C55.3,5.7,54-0.3,50.1,0z M35.2,26.1
			c1,1.1,1.9,2.2,2.5,3.4c-2,0.4-4,0.7-5.9,1.1C32.8,29.1,33.9,27.6,35.2,26.1z"/>
		<circle class="st0" cx="43.7" cy="15.6" r="5.3"/>
	</g>
</g>
</svg>
